<?xml version="1.0" standalone="no"?>
<!DOCTYPE svg PUBLIC "-//W3C//DTD SVG 20010904//EN"
 "http://www.w3.org/TR/2001/REC-SVG-20010904/DTD/svg10.dtd">
<svg version="1.0" xmlns="http://www.w3.org/2000/svg"
 width="1920.000000pt" height="1071.000000pt" viewBox="0 0 1920.000000 1071.000000"
 preserveAspectRatio="xMidYMid meet">

<g transform="translate(0.000000,1071.000000) scale(0.100000,-0.100000)"
fill="#ffffff" stroke="none">
<path d="M17469 10422 c-190 -153 -615 -490 -943 -751 -328 -260 -596 -476
-596 -480 0 -7 209 -274 235 -300 12 -12 23 -6 77 36 35 28 384 305 776 616
392 312 716 567 720 567 4 -1 257 -368 561 -816 305 -448 558 -817 562 -820 9
-5 321 207 326 222 4 12 -1347 1997 -1362 2000 -5 1 -166 -122 -356 -274z"/>
<path d="M17491 9609 c-105 -52 -130 -100 -166 -314 -38 -229 -99 -520 -156
-745 -27 -107 -49 -217 -49 -245 0 -66 35 -139 90 -188 57 -52 97 -67 177 -67
111 1 191 47 238 140 57 111 255 1032 255 1184 0 69 -28 135 -80 186 -84 85
-200 104 -309 49z"/>
<path d="M16909 7406 c-55 -19 -104 -53 -132 -89 -13 -17 -49 -91 -80 -162
-91 -215 -191 -427 -320 -675 -121 -235 -121 -235 -121 -305 0 -56 6 -80 27
-121 48 -93 136 -146 243 -146 80 0 139 27 196 91 93 104 517 994 534 1120 24
185 -174 349 -347 287z"/>
<path d="M15790 5389 c-69 -20 -112 -63 -239 -235 -161 -219 -272 -359 -442
-560 -75 -88 -144 -175 -154 -194 -27 -52 -31 -150 -10 -207 20 -52 84 -127
126 -149 86 -44 204 -37 277 15 71 52 363 404 606 731 175 235 181 245 181
340 0 84 -20 134 -76 189 -66 66 -180 96 -269 70z"/>
<path d="M7625 4775 c-84 -15 -139 -41 -181 -87 -55 -58 -69 -95 -69 -183 0
-94 20 -140 84 -198 77 -69 108 -75 336 -62 103 6 146 4 208 -9 149 -31 283
-100 418 -216 84 -73 123 -90 202 -90 91 0 135 17 194 76 78 77 99 165 67 275
-13 45 -29 67 -93 129 -187 184 -452 317 -730 365 -102 18 -338 18 -436 0z"/>
<path d="M6625 4051 c-58 -15 -106 -44 -144 -87 -84 -95 -204 -388 -252 -614
-19 -89 -23 -137 -23 -310 -1 -286 22 -400 97 -479 118 -124 338 -101 422 43
42 73 49 121 31 233 -42 263 0 507 131 761 47 90 57 118 61 173 4 56 1 75 -20
120 -44 97 -120 152 -223 163 -27 3 -63 1 -80 -3z"/>
<path d="M14275 3671 c-75 -21 -61 -10 -311 -226 -165 -142 -327 -273 -519
-417 -161 -121 -166 -127 -197 -193 -58 -129 0 -288 128 -350 56 -27 154 -32
210 -10 92 35 668 489 905 712 86 82 113 139 107 232 -9 142 -103 240 -243
255 -27 3 -63 1 -80 -3z"/>
<path d="M8985 3327 c-63 -30 -129 -103 -144 -159 -6 -24 -13 -108 -15 -188
-8 -258 -56 -447 -168 -660 -33 -63 -70 -133 -82 -155 -32 -60 -29 -164 6
-231 49 -94 131 -143 238 -144 77 0 148 30 196 81 66 72 187 309 249 488 94
274 134 705 77 834 -42 95 -125 149 -237 155 -58 2 -79 -1 -120 -21z"/>
<path d="M12403 2329 c-22 -4 -135 -57 -250 -118 -190 -101 -498 -247 -728
-346 -115 -50 -176 -108 -201 -191 -37 -129 21 -261 141 -320 82 -39 166 -32
300 25 408 176 911 430 977 494 102 99 106 275 6 378 -64 66 -156 96 -245 78z"/>
<path d="M7020 1955 c-103 -33 -170 -124 -178 -239 -5 -84 13 -137 68 -200 44
-50 255 -218 352 -281 43 -27 78 -53 78 -56 0 -9 -161 -82 -329 -148 -182 -72
-212 -90 -250 -144 -36 -55 -51 -99 -51 -157 0 -98 51 -186 138 -238 41 -23
58 -27 127 -27 75 0 90 4 240 64 216 87 463 202 618 289 118 66 132 72 186 72
116 0 208 56 257 156 24 48 26 63 22 128 -5 83 -34 144 -89 190 -39 33 -158
88 -224 105 -137 33 -442 215 -631 374 -55 47 -116 93 -134 102 -46 24 -144
28 -200 10z"/>
<path d="M177 1565 c-131 -50 -202 -194 -162 -330 27 -94 83 -141 315 -262
219 -115 451 -224 680 -321 190 -80 255 -89 342 -50 184 85 221 321 69 449
-23 21 -97 58 -183 93 -212 87 -475 211 -691 327 -186 100 -194 103 -262 106
-43 2 -85 -3 -108 -12z"/>
<path d="M10260 1467 c-10 -10 -371 -89 -534 -116 -94 -16 -250 -36 -346 -45
-96 -9 -191 -21 -211 -26 -86 -23 -171 -123 -185 -219 -20 -133 78 -273 209
-301 139 -28 875 83 1192 181 151 46 229 197 183 351 -15 50 -79 123 -132 150
-38 19 -164 37 -176 25z"/>
<path d="M2350 741 c-110 -34 -200 -151 -200 -261 0 -88 69 -199 150 -240 104
-53 970 -200 1180 -200 120 0 196 46 252 154 33 62 30 164 -5 232 -50 97 -120
136 -272 154 -293 33 -603 83 -865 140 -135 30 -193 35 -240 21z"/>
<path d="M5655 654 c-190 -38 -569 -84 -862 -104 -157 -10 -191 -20 -253 -76
-65 -59 -85 -105 -85 -199 0 -93 20 -140 83 -197 70 -63 110 -72 290 -65 293
13 879 87 1040 133 62 17 133 77 164 138 66 129 9 294 -124 360 -60 30 -138
33 -253 10z"/>
</g>
</svg>
